<svg width="54" height="49" viewBox="0 0 54 49" fill="none" xmlns="http://www.w3.org/2000/svg">
<path d="M40 0.10498C34.2 0.10498 29.078 3.96498 27 9.50298C24.922 3.96498 19.8 0.10498 14 0.10498C6.28 0.10498 0 6.77898 0 14.982C0 31.001 13.418 41.747 21.417 46.727C23.139 47.799 25.069 48.335 27 48.335C28.931 48.335 30.861 47.799 32.583 46.727C40.582 41.747 54 31.001 54 14.982C54 6.77898 47.72 0.10498 40 0.10498ZM31.526 45.03C28.734 46.768 25.266 46.766 22.474 45.03C14.828 40.269 2 30.034 2 14.982C2 7.88098 7.383 2.10498 14 2.10498C19.917 2.10498 25.017 6.84598 25.861 13.132L25.978 14H28.022L28.139 13.133C28.983 6.84698 34.083 2.10498 40 2.10498C46.617 2.10498 52 7.88098 52 14.982C52 30.034 39.172 40.269 31.526 45.03Z" fill="#216E7A"/>
</svg>
