<svg width="1920" height="523" viewBox="0 0 1920 523" fill="none" xmlns="http://www.w3.org/2000/svg">
<path d="M106.95 173.296L-8.83377 285.477C-16.6103 293.011 -21 303.376 -21 314.204V432.84C-21 454.931 -3.09142 472.84 19 472.84H88.6733H425.5H724.28H954.221C958.757 472.84 963.26 473.611 967.537 475.121L1096.69 520.718C1100.97 522.228 1105.47 523 1110 523H1296.33C1300.46 523 1304.56 522.361 1308.49 521.106L1550.86 443.734C1554.8 442.479 1558.9 441.84 1563.03 441.84H1817H1919.32C1933.39 441.84 1946.42 434.448 1953.64 422.373L1987.33 366.064C1991.04 359.858 1993 352.761 1993 345.53V216.259C1993 194.168 1975.09 176.259 1953 176.259H1938.9C1930.33 176.259 1921.98 173.507 1915.09 168.408L1780.28 68.5969C1772.78 63.0413 1763.57 60.2857 1754.24 60.8077L1572.48 70.9852C1562.4 71.5495 1552.91 75.9045 1545.9 83.1763L1431.51 201.968C1423.97 209.798 1413.57 214.222 1402.7 214.222H1315.22C1306.98 214.222 1298.94 211.677 1292.2 206.936L1198.25 140.838C1191.52 136.096 1183.48 133.552 1175.24 133.552H975.378C966.129 133.552 957.166 136.757 950.014 142.622L810.117 257.349C802.966 263.214 794.002 266.42 784.753 266.42H605.477C596.84 266.42 588.436 263.625 581.52 258.452L463.243 169.991C456.327 164.819 447.922 162.024 439.286 162.024H134.784C124.394 162.024 114.412 166.066 106.95 173.296Z" fill="#2A808D" fill-opacity="0.3"/>
<path d="M106.95 143.296L-8.83377 255.477C-16.6103 263.011 -21 273.376 -21 284.204V402.84C-21 424.931 -3.09142 442.84 19 442.84H88.6733H425.5H724.28H954.221C958.757 442.84 963.26 443.611 967.537 445.121L1096.69 490.718C1100.97 492.228 1105.47 493 1110 493H1296.33C1300.46 493 1304.56 492.361 1308.49 491.106L1550.86 413.734C1554.8 412.479 1558.9 411.84 1563.03 411.84H1817H1917.77C1931.59 411.84 1944.44 404.7 1951.74 392.957L1986.97 336.278C1990.91 329.94 1993 322.625 1993 315.161V186.259C1993 164.168 1975.09 146.259 1953 146.259H1938.9C1930.33 146.259 1921.98 143.507 1915.09 138.408L1780.28 38.5969C1772.78 33.0413 1763.57 30.2857 1754.24 30.8077L1572.48 40.9852C1562.4 41.5495 1552.91 45.9045 1545.9 53.1763L1431.51 171.968C1423.97 179.798 1413.57 184.222 1402.7 184.222H1315.22C1306.98 184.222 1298.94 181.677 1292.2 176.936L1198.25 110.838C1191.52 106.096 1183.48 103.552 1175.24 103.552H975.378C966.129 103.552 957.166 106.757 950.014 112.622L810.117 227.349C802.966 233.214 794.002 236.42 784.753 236.42H605.477C596.84 236.42 588.436 233.625 581.52 228.452L463.243 139.991C456.327 134.819 447.922 132.024 439.286 132.024H134.784C124.394 132.024 114.412 136.066 106.95 143.296Z" fill="#2A8086"/>
<path d="M107.177 104.983L-7.75101 208.365C-16.1841 215.951 -21 226.761 -21 238.104V343.292C-21 365.384 -3.09142 383.292 19 383.292H80.7997C85.9989 383.292 91.1481 382.279 95.9594 380.308L285.778 302.569C290.589 300.599 295.739 299.585 300.938 299.585H601.086C609.856 299.585 618.383 302.467 625.354 307.788L713.532 375.089C720.503 380.41 729.03 383.292 737.8 383.292H950.167C957.308 383.292 964.319 385.204 970.472 388.829L1093.75 461.463C1099.91 465.088 1106.92 467 1114.06 467H1294.61C1299.86 467 1305.05 465.968 1309.9 463.962L1419.71 418.538L1551.9 384.552C1555.15 383.716 1558.5 383.292 1561.86 383.292H1756.25C1764.34 383.292 1772.24 380.839 1778.9 376.256L1915.46 282.39C1922.13 277.807 1930.03 275.354 1938.12 275.354H1953C1975.09 275.354 1993 257.445 1993 235.354V147.939C1993 125.847 1975.09 107.939 1953 107.939H1938.12C1930.03 107.939 1922.13 105.485 1915.46 100.902L1779.85 7.68683C1772.6 2.70181 1763.91 0.247621 1755.12 0.704499L1571.73 10.2382C1562.1 10.7386 1552.98 14.6979 1546.04 21.3878L1431.33 131.98C1423.87 139.168 1413.92 143.184 1403.57 143.184H1314.46C1306.69 143.184 1299.09 140.921 1292.59 136.672L1197.87 74.7992C1191.36 70.5504 1183.76 68.2877 1175.99 68.2877H974.569C965.815 68.2877 957.302 71.1595 950.337 76.4626L809.794 183.471C802.829 188.774 794.316 191.646 785.562 191.646H604.699C596.544 191.646 588.583 189.153 581.885 184.502L462.878 101.866C456.179 97.2145 448.219 94.7217 440.063 94.7217H133.928C124.05 94.7217 114.521 98.3769 107.177 104.983Z" fill="#2A808D" fill-opacity="0.3"/>
<path d="M17.7216 85.4707H9.43311L12.9853 120.203L13.7747 147.832H23.2472L19.3003 120.203L17.7216 85.4707Z" fill="#216E7A"/>
<path d="M22.0984 152.568H15.4384C14.9707 152.568 14.6056 152.972 14.6532 153.438L18.1164 187.301L18.8839 214.162C18.8961 214.589 19.2458 214.929 19.6729 214.929H27.4682C27.9485 214.929 28.3176 214.503 28.2496 214.028L24.4314 187.301L22.8869 153.321C22.8678 152.9 22.5204 152.568 22.0984 152.568Z" fill="#216E7A"/>
<path d="M38.2288 176.249L30.6318 176.249C30.1676 176.249 29.8036 176.648 29.8457 177.11L31.4826 195.078L31.4826 211.288C31.4826 211.757 31.8894 212.123 32.3559 212.073L40.4505 211.208C40.9006 211.16 41.2181 210.744 41.1459 210.297L38.6519 194.871C38.6443 194.823 38.641 194.776 38.642 194.728L39.018 177.055C39.0274 176.613 38.6713 176.249 38.2288 176.249Z" fill="#216E7A"/>
<path d="M27.2292 219.665H20.5693C20.1016 219.665 19.7364 220.069 19.784 220.535L23.2406 254.332C23.245 254.376 23.2459 254.42 23.243 254.463L22.5121 265.793C22.4827 266.248 22.8439 266.633 23.2998 266.633H30.9736C31.4698 266.633 31.8429 266.181 31.7486 265.694L29.5733 254.454C29.566 254.417 29.5614 254.378 29.5597 254.34L28.0178 220.419C27.9986 219.997 27.6513 219.665 27.2292 219.665Z" fill="#216E7A"/>
<path d="M4.85475 234.18C9.44773 231.441 16.0302 222.265 16.5099 215.322C16.5399 214.887 16.1901 214.615 15.8255 214.854C12.9606 216.733 4.11014 226.507 3.87467 233.602C3.85709 234.132 4.39954 234.451 4.85475 234.18Z" fill="#216E7A"/>
<path d="M1.79097 207.966C3.48064 212.864 10.0162 213.676 14.5683 213.476C14.8627 213.463 15.1487 213.277 15.1336 212.982C15.0153 210.67 7.46362 207.472 2.50116 207.076C2.00437 207.036 1.62844 207.495 1.79097 207.966Z" fill="#216E7A"/>
<path d="M27.4336 166.378C33.1606 165.148 42.8952 158.073 45.1929 151.422C45.3352 151.01 45.07 150.64 44.6478 150.749C41.1272 151.657 28.6663 158.681 26.6594 165.558C26.5162 166.049 26.9338 166.486 27.4336 166.378Z" fill="#216E7A"/>
<path d="M106.489 187.537C103.035 192.268 92.6119 198.282 85.6013 197.675C85.1669 197.637 84.9369 197.244 85.2081 196.903C87.4698 194.056 98.9567 185.532 106.055 186.496C106.561 186.565 106.791 187.124 106.489 187.537Z" fill="#216E7A"/>
<path d="M116.463 105.145C110.303 110.683 93.7225 115.748 84.7548 112.29C84.348 112.134 84.2113 111.684 84.5406 111.398C88.0492 108.353 107.409 99.8287 116.303 104.01C116.756 104.223 116.835 104.81 116.463 105.145Z" fill="#216E7A"/>
<path d="M90.9252 87.2624C91.3298 93.7412 86.7254 106.092 80.467 110.077C80.0992 110.311 79.6681 110.146 79.656 109.711C79.5481 105.815 83.3417 90.3828 89.9448 86.7128C90.3822 86.4697 90.8941 86.7629 90.9252 87.2624Z" fill="#216E7A"/>
<path d="M102.619 130.392C99.6628 124.144 89.9034 115.32 83.2376 115.275C82.8017 115.272 82.5217 115.652 82.7201 116.04C84.5645 119.65 95.3553 131.849 102.098 131.345C102.569 131.31 102.821 130.819 102.619 130.392Z" fill="#216E7A"/>
<path d="M55.4235 84.3673L47.1487 83.892L48.7033 118.771L47.907 146.399L57.364 146.942L55.0079 119.133L55.4235 84.3673Z" fill="#216E7A"/>
<path d="M79.6471 62.3393L71.4675 61L69.3606 95.8502L65.6752 123.243L75.0232 124.774L75.5926 96.8706L79.6471 62.3393Z" fill="#216E7A"/>
<path d="M89.0691 135.619L78.3816 133.623L75.5016 168.443L70.585 195.65L82.7993 197.932L83.6444 169.964L89.0691 135.619Z" fill="#216E7A"/>
<path d="M55.9451 151.605L49.2961 151.223C48.8292 151.196 48.4414 151.579 48.4623 152.046L49.9779 186.052L49.2038 212.913C49.1915 213.34 49.5211 213.7 49.9476 213.724L57.73 214.171C58.2096 214.199 58.6023 213.795 58.5618 213.317L56.2826 186.414L56.6892 152.403C56.6942 151.981 56.3664 151.629 55.9451 151.605Z" fill="#216E7A"/>
<path d="M73.1239 129.262L66.5515 128.186C66.0899 128.11 65.6642 128.45 65.636 128.917L63.5818 162.895L59.9986 189.527C59.9417 189.951 60.2319 190.342 60.6534 190.411L68.3462 191.671C68.8203 191.749 69.2532 191.388 69.263 190.908L69.8138 163.915L73.7803 130.133C73.8295 129.714 73.5403 129.33 73.1239 129.262Z" fill="#216E7A"/>
<path d="M80.5418 202.332L71.4723 200.637C71.0028 200.55 70.5506 200.893 70.5114 201.367L67.7054 235.292L62.8541 263.966C62.7791 264.41 63.0927 264.814 63.5428 264.855L73.7066 265.767C74.1655 265.809 74.5743 265.454 74.5946 264.998L75.8483 236.813L81.1571 203.202C81.2222 202.79 80.9525 202.408 80.5418 202.332Z" fill="#216E7A"/>
<path d="M57.2313 218.887L50.5701 218.504C50.1035 218.477 49.716 218.859 49.7361 219.326L50.8731 245.657C50.8748 245.695 50.8737 245.734 50.8698 245.772L48.9826 264.266C48.9382 264.701 49.2559 265.089 49.691 265.132L59.8037 266.122C60.3091 266.171 60.729 265.738 60.6633 265.234L58.0467 245.182L57.9754 219.673C57.9742 219.255 57.6481 218.911 57.2313 218.887Z" fill="#216E7A"/>
<path d="M35.3505 129.094C33.2679 135.277 39.7323 142.083 44.723 146.019C44.9489 146.198 45.2745 146.25 45.4645 146.033C47.3236 143.919 41.5234 133.66 36.4934 128.833C36.1202 128.475 35.5156 128.603 35.3505 129.094Z" fill="#216E7A"/>
<path d="M97.1342 218.119C91.1469 217.702 87.2296 209.609 85.3401 203.808C85.2519 203.537 85.3137 203.213 85.5837 203.123C88.0274 202.303 95.1184 210.994 97.7898 217.148C97.9984 217.629 97.6569 218.156 97.1342 218.119Z" fill="#216E7A"/>
<path d="M40.0909 215.291L32.4939 215.291C32.0296 215.291 31.6656 215.69 31.7078 216.152L33.3447 234.119L33.3447 265.36C33.3447 265.829 33.7514 266.195 34.2179 266.145L42.3734 265.274C42.8001 265.228 43.1122 264.85 43.0762 264.422L40.5025 233.841L40.8801 216.097C40.8895 215.655 40.5334 215.291 40.0909 215.291Z" fill="#216E7A"/>
</svg>
